<svg xmlns="http://www.w3.org/2000/svg" xmlns:xlink="http://www.w3.org/1999/xlink" width="512" height="512" style="shape-rendering:geometricPrecision;text-rendering:geometricPrecision;image-rendering:optimizeQuality;fill-rule:evenodd;clip-rule:evenodd" version="1.1">
  <path style="opacity:1" d="M240.5-.5h29q-.25 113.5.5 227Q284.132 359.572 402.5 421a2092 2092 0 0 0 33 13.5 114.6 114.6 0 0 1-22 22q-97.894-37.14-146.5-130-12-14-24 0-48.531 92.534-146 130a134.3 134.3 0 0 1-21.5-22q105.409-37.155 149.5-140 12.472-32.39 15-67 .75-114 .5-228"/>
  <path style="opacity:1" d="M-.5 278.5v-46Q15.796 98.01 132.5 30q36.938-19.562 78-27.5a8363 8363 0 0 1 .5 224Q199.646 333.037 108.5 388a211.6 211.6 0 0 1-56 21.5l-3-1q-42.597-58.201-50-130m512-46v46q-7.622 73.122-51.5 132-121.41-31.41-156-152a232 232 0 0 1-4-23 9328 9328 0 0 1-1.5-233q115.056 22.367 177.5 121 29.377 50.877 35.5 109m-234 279h-44q-57.798-5.432-108-35 80.856-38.11 129.5-113 48.938 75.433 130.5 113.5-50.44 28.899-108 34.5"/>
</svg>